<mxfile host="app.diagrams.net" modified="2020-08-02T06:20:06.709Z" agent="5.0 (X11; Linux x86_64) AppleWebKit/537.36 (KHTML, like Gecko) Chrome/79.0.3945.79 Safari/537.36" etag="NmmDZ0cxAWzH0cknYGff" version="13.5.4" type="github">
  <diagram id="32h0I8RzftIOFM6WSlAc" name="Page-1">
    <mxGraphModel dx="1345" dy="757" grid="1" gridSize="10" guides="1" tooltips="1" connect="1" arrows="1" fold="1" page="1" pageScale="1" pageWidth="850" pageHeight="1100" math="0" shadow="0">
      <root>
        <mxCell id="0" />
        <mxCell id="1" parent="0" />
        <mxCell id="fFVC8hDLfVL0VsRPMFsS-1" value="" style="rounded=0;whiteSpace=wrap;html=1;fillColor=#dae8fc;strokeColor=#6c8ebf;" vertex="1" parent="1">
          <mxGeometry x="80" y="80" width="760" height="60" as="geometry" />
        </mxCell>
        <mxCell id="fFVC8hDLfVL0VsRPMFsS-24" style="edgeStyle=orthogonalEdgeStyle;rounded=0;orthogonalLoop=1;jettySize=auto;html=1;" edge="1" parent="1" source="fFVC8hDLfVL0VsRPMFsS-2">
          <mxGeometry relative="1" as="geometry">
            <mxPoint x="450" y="60" as="targetPoint" />
          </mxGeometry>
        </mxCell>
        <mxCell id="fFVC8hDLfVL0VsRPMFsS-2" value="&lt;b&gt;&lt;font style=&quot;font-size: 19px&quot;&gt;home page&lt;/font&gt;&lt;/b&gt;" style="text;html=1;strokeColor=none;fillColor=none;align=center;verticalAlign=middle;whiteSpace=wrap;rounded=0;" vertex="1" parent="1">
          <mxGeometry x="50" y="20" width="110" height="20" as="geometry" />
        </mxCell>
        <mxCell id="fFVC8hDLfVL0VsRPMFsS-4" value="header" style="text;html=1;strokeColor=none;fillColor=none;align=center;verticalAlign=middle;whiteSpace=wrap;rounded=0;" vertex="1" parent="1">
          <mxGeometry x="350" y="100" width="210" height="20" as="geometry" />
        </mxCell>
        <mxCell id="fFVC8hDLfVL0VsRPMFsS-5" value="" style="rounded=1;whiteSpace=wrap;html=1;fillColor=#dae8fc;strokeColor=#6c8ebf;" vertex="1" parent="1">
          <mxGeometry x="400" y="280" width="120" height="60" as="geometry" />
        </mxCell>
        <mxCell id="fFVC8hDLfVL0VsRPMFsS-6" value="add" style="rounded=1;whiteSpace=wrap;html=1;fillColor=#dae8fc;strokeColor=#6c8ebf;" vertex="1" parent="1">
          <mxGeometry x="720" y="230" width="120" height="140" as="geometry" />
        </mxCell>
        <mxCell id="fFVC8hDLfVL0VsRPMFsS-7" value="" style="rounded=1;whiteSpace=wrap;html=1;fillColor=#dae8fc;strokeColor=#6c8ebf;" vertex="1" parent="1">
          <mxGeometry x="560" y="280" width="120" height="60" as="geometry" />
        </mxCell>
        <mxCell id="fFVC8hDLfVL0VsRPMFsS-8" value="" style="rounded=1;whiteSpace=wrap;html=1;fillColor=#dae8fc;strokeColor=#6c8ebf;" vertex="1" parent="1">
          <mxGeometry x="240" y="280" width="120" height="60" as="geometry" />
        </mxCell>
        <mxCell id="fFVC8hDLfVL0VsRPMFsS-9" value="add" style="rounded=1;whiteSpace=wrap;html=1;fillColor=#dae8fc;strokeColor=#6c8ebf;" vertex="1" parent="1">
          <mxGeometry x="80" y="230" width="120" height="140" as="geometry" />
        </mxCell>
        <mxCell id="fFVC8hDLfVL0VsRPMFsS-10" value="" style="rounded=0;whiteSpace=wrap;html=1;fillColor=#dae8fc;strokeColor=#6c8ebf;" vertex="1" parent="1">
          <mxGeometry x="80" y="390" width="760" height="60" as="geometry" />
        </mxCell>
        <mxCell id="fFVC8hDLfVL0VsRPMFsS-11" value="" style="rounded=0;whiteSpace=wrap;html=1;fillColor=#f5f5f5;strokeColor=#666666;fontColor=#333333;" vertex="1" parent="1">
          <mxGeometry x="80" y="160" width="760" height="50" as="geometry" />
        </mxCell>
        <mxCell id="fFVC8hDLfVL0VsRPMFsS-12" value="logo" style="text;html=1;strokeColor=none;fillColor=none;align=center;verticalAlign=middle;whiteSpace=wrap;rounded=0;" vertex="1" parent="1">
          <mxGeometry x="100" y="175" width="40" height="20" as="geometry" />
        </mxCell>
        <mxCell id="fFVC8hDLfVL0VsRPMFsS-13" value="sing up" style="text;html=1;strokeColor=none;fillColor=none;align=center;verticalAlign=middle;whiteSpace=wrap;rounded=0;" vertex="1" parent="1">
          <mxGeometry x="770" y="175" width="50" height="20" as="geometry" />
        </mxCell>
        <mxCell id="fFVC8hDLfVL0VsRPMFsS-14" value="contact us" style="text;html=1;strokeColor=none;fillColor=none;align=center;verticalAlign=middle;whiteSpace=wrap;rounded=0;" vertex="1" parent="1">
          <mxGeometry x="260" y="175" width="60" height="20" as="geometry" />
        </mxCell>
        <mxCell id="fFVC8hDLfVL0VsRPMFsS-15" value="about us" style="text;html=1;strokeColor=none;fillColor=none;align=center;verticalAlign=middle;whiteSpace=wrap;rounded=0;" vertex="1" parent="1">
          <mxGeometry x="190" y="175" width="60" height="20" as="geometry" />
        </mxCell>
        <mxCell id="fFVC8hDLfVL0VsRPMFsS-16" value="home" style="text;html=1;strokeColor=none;fillColor=none;align=center;verticalAlign=middle;whiteSpace=wrap;rounded=0;" vertex="1" parent="1">
          <mxGeometry x="150" y="175" width="40" height="20" as="geometry" />
        </mxCell>
        <mxCell id="fFVC8hDLfVL0VsRPMFsS-19" value="log in" style="text;html=1;strokeColor=none;fillColor=none;align=center;verticalAlign=middle;whiteSpace=wrap;rounded=0;" vertex="1" parent="1">
          <mxGeometry x="720" y="175" width="40" height="20" as="geometry" />
        </mxCell>
        <mxCell id="fFVC8hDLfVL0VsRPMFsS-22" value="footer" style="text;html=1;strokeColor=none;fillColor=none;align=center;verticalAlign=middle;whiteSpace=wrap;rounded=0;" vertex="1" parent="1">
          <mxGeometry x="370" y="410" width="170" height="20" as="geometry" />
        </mxCell>
        <mxCell id="fFVC8hDLfVL0VsRPMFsS-23" value="pic" style="text;html=1;strokeColor=none;fillColor=none;align=center;verticalAlign=middle;whiteSpace=wrap;rounded=0;" vertex="1" parent="1">
          <mxGeometry x="435" y="300" width="40" height="20" as="geometry" />
        </mxCell>
      </root>
    </mxGraphModel>
  </diagram>
</mxfile>
